# xmcd CD database file
#
# Track frame offsets:
#	150
#	28177
#	46836
#	68102
#	88148
#	116327
#	136116
#	158831
#	180275
#	200234
#
# Disc length: 2916 seconds
#
# Revision: 0
# Processed by: cddbd v1.5.2PL0 Copyright (c) Steve Scherf et al.
# Submitted via: CDex 1.70beta2
#
DISCID=810b620a
DTITLE=Alma Thomas - Sextet
DYEAR=2007
DGENRE=Blues
TTITLE0=Cross Fade
TTITLE1=Write Me A Love Song
TTITLE2=Sentimental Reason
TTITLE3=Sensibilidade
TTITLE4=Walk Silently
TTITLE5=Yesterday Today and Tomorrow
TTITLE6=Never Enough
TTITLE7=Creeping In
TTITLE8=You Rise
TTITLE9=Steps Away
EXTD=YEAR: 2007
EXTT0=
EXTT1=
EXTT2=
EXTT3=
EXTT4=
EXTT5=
EXTT6=
EXTT7=
EXTT8=
EXTT9=
PLAYORDER=
